<svg xmlns="http://www.w3.org/2000/svg" version="1.1" xmlns:xlink="http://www.w3.org/1999/xlink" xmlns:svgjs="http://svgjs.dev/svgjs" viewBox="0 0 800 800"><defs><linearGradient x1="50%" y1="0%" x2="50%" y2="100%" id="ffflurry-grad" gradientTransform="rotate(270)"><stop stop-color="#ffffff00" stop-opacity="1" offset="0%"></stop><stop stop-color="#77ffcd3d" stop-opacity="1" offset="45%"></stop><stop stop-color="#34fcb33d" stop-opacity="1" offset="100%"></stop></linearGradient></defs><rect width="100%" height="100%" fill="#ffffff00"></rect><g fill="url(#ffflurry-grad)"><rect width="280" height="1" x="89" y="581.5" rx="0.5" transform="rotate(135, 229, 582)" opacity="0.15"></rect><rect width="142" height="1" x="663" y="743.5" rx="0.5" transform="rotate(135, 734, 744)" opacity="0.92"></rect><rect width="241" height="1" x="618.5" y="326.5" rx="0.5" transform="rotate(135, 739, 327)" opacity="0.41"></rect><rect width="227" height="1" x="618.5" y="526.5" rx="0.5" transform="rotate(135, 732, 527)" opacity="0.30"></rect><rect width="227" height="1" x="372.5" y="495.5" rx="0.5" transform="rotate(135, 486, 496)" opacity="0.84"></rect><rect width="52" height="1" x="473" y="92.5" rx="0.5" transform="rotate(135, 499, 93)" opacity="0.23"></rect><rect width="257" height="1" x="525.5" y="129.5" rx="0.5" transform="rotate(135, 654, 130)" opacity="0.35"></rect><rect width="246" height="1" x="230" y="596.5" rx="0.5" transform="rotate(135, 353, 597)" opacity="0.34"></rect><rect width="245" height="1" x="540.5" y="651.5" rx="0.5" transform="rotate(135, 663, 652)" opacity="0.55"></rect><rect width="173" height="1" x="176.5" y="38.5" rx="0.5" transform="rotate(135, 263, 39)" opacity="0.11"></rect><rect width="264" height="1" x="-76" y="73.5" rx="0.5" transform="rotate(135, 56, 74)" opacity="0.93"></rect><rect width="190" height="1" x="422" y="276.5" rx="0.5" transform="rotate(135, 517, 277)" opacity="0.62"></rect><rect width="289" height="1" x="596.5" y="58.5" rx="0.5" transform="rotate(135, 741, 59)" opacity="0.29"></rect><rect width="387" height="1" x="195.5" y="350.5" rx="0.5" transform="rotate(135, 389, 351)" opacity="0.64"></rect><rect width="298" height="1" x="204" y="471.5" rx="0.5" transform="rotate(135, 353, 472)" opacity="0.12"></rect><rect width="306" height="1" x="489" y="252.5" rx="0.5" transform="rotate(135, 642, 253)" opacity="0.71"></rect><rect width="66" height="1" x="93" y="209.5" rx="0.5" transform="rotate(135, 126, 210)" opacity="0.88"></rect><rect width="147" height="1" x="522.5" y="748.5" rx="0.5" transform="rotate(135, 596, 749)" opacity="0.21"></rect><rect width="128" height="1" x="488" y="377.5" rx="0.5" transform="rotate(135, 552, 378)" opacity="0.94"></rect><rect width="41" height="1" x="551.5" y="561.5" rx="0.5" transform="rotate(135, 572, 562)" opacity="0.52"></rect><rect width="172" height="1" x="-43" y="712.5" rx="0.5" transform="rotate(135, 43, 713)" opacity="0.46"></rect><rect width="79" height="1" x="419.5" y="31.5" rx="0.5" transform="rotate(135, 459, 32)" opacity="0.69"></rect><rect width="105" height="1" x="13.5" y="552.5" rx="0.5" transform="rotate(135, 66, 553)" opacity="0.33"></rect><rect width="180" height="1" x="230" y="156.5" rx="0.5" transform="rotate(135, 320, 157)" opacity="0.09"></rect><rect width="196" height="1" x="21" y="621.5" rx="0.5" transform="rotate(135, 119, 622)" opacity="0.52"></rect><rect width="184" height="1" x="407" y="640.5" rx="0.5" transform="rotate(135, 499, 641)" opacity="0.56"></rect><rect width="321" height="1" x="0.5" y="736.5" rx="0.5" transform="rotate(135, 161, 737)" opacity="0.71"></rect><rect width="167" height="1" x="528.5" y="476.5" rx="0.5" transform="rotate(135, 612, 477)" opacity="0.96"></rect><rect width="75" height="1" x="10.5" y="284.5" rx="0.5" transform="rotate(135, 48, 285)" opacity="0.90"></rect><rect width="243" height="1" x="-69.5" y="441.5" rx="0.5" transform="rotate(135, 52, 442)" opacity="0.73"></rect><rect width="168" height="1" x="666" y="197.5" rx="0.5" transform="rotate(135, 750, 198)" opacity="0.72"></rect><rect width="127" height="1" x="125.5" y="470.5" rx="0.5" transform="rotate(135, 189, 471)" opacity="0.57"></rect><rect width="277" height="1" x="295.5" y="734.5" rx="0.5" transform="rotate(135, 434, 735)" opacity="0.96"></rect><rect width="155" height="1" x="529.5" y="38.5" rx="0.5" transform="rotate(135, 607, 39)" opacity="0.13"></rect><rect width="61" height="1" x="730.5" y="431.5" rx="0.5" transform="rotate(135, 761, 432)" opacity="0.11"></rect><rect width="288" height="1" x="16" y="83.5" rx="0.5" transform="rotate(135, 160, 84)" opacity="0.33"></rect><rect width="52" height="1" x="210" y="140.5" rx="0.5" transform="rotate(135, 236, 141)" opacity="0.60"></rect><rect width="60" height="1" x="598" y="597.5" rx="0.5" transform="rotate(135, 628, 598)" opacity="0.52"></rect><rect width="158" height="1" x="680" y="633.5" rx="0.5" transform="rotate(135, 759, 634)" opacity="0.70"></rect><rect width="226" height="1" x="260" y="65.5" rx="0.5" transform="rotate(135, 373, 66)" opacity="0.75"></rect><rect width="80" height="1" x="146" y="358.5" rx="0.5" transform="rotate(135, 186, 359)" opacity="0.93"></rect><rect width="310" height="1" x="119" y="266.5" rx="0.5" transform="rotate(135, 274, 267)" opacity="0.08"></rect><rect width="83" height="1" x="622.5" y="399.5" rx="0.5" transform="rotate(135, 664, 400)" opacity="0.50"></rect><rect width="153" height="1" x="217.5" y="725.5" rx="0.5" transform="rotate(135, 294, 726)" opacity="0.36"></rect><rect width="218" height="1" x="444" y="160.5" rx="0.5" transform="rotate(135, 553, 161)" opacity="0.12"></rect><rect width="357" height="1" x="238.5" y="197.5" rx="0.5" transform="rotate(135, 417, 198)" opacity="0.34"></rect></g></svg>