<svg xmlns="http://www.w3.org/2000/svg" version="1.1" xmlns:xlink="http://www.w3.org/1999/xlink" xmlns:svgjs="http://svgjs.dev/svgjs" viewBox="0 0 800 800"><g fill="hsl(290, 59%, 70%)"><path d="M224 30H274C302 30 324 52 324 80H274C246 80 224 58 224 30Z " transform="matrix(0.07353420816587,0.19156316157382552,-0.19156316157382552,0.07353420816587,264.387600849112,-1.532687720351042)" opacity="0.31"></path><path d="M115 21H165C193 21 215 43 215 71H165C137 71 115 49 115 21Z " transform="matrix(-0.04401401724667029,0.2496158958193816,-0.2496158958193816,-0.04401401724667029,183.74464405339216,6.83802198314887)" opacity="0.39"></path><path d="M424 462H474C502 462 524 484 524 512H474C446 512 424 490 424 462Z " transform="matrix(-0.16220531143109373,0.24047926361319305,-0.24047926361319305,-0.16220531143109373,667.9987189979635,452.00681571428913)" opacity="0.44"></path><path d="M422 53H472C500 53 522 75 522 103H472C444 103 422 81 422 53Z " transform="matrix(-0.07219653840121595,0.25177925081571545,-0.25177925081571545,-0.07219653840121595,525.7155476889998,-35.20847638972286)" opacity="0.40"></path><path d="M683 714H733C761 714 783 736 783 764H733C705 764 683 742 683 714Z " transform="matrix(-0.33714515207677775,-0.27301476102087724,0.27301476102087724,-0.33714515207677775,778.3694880778498,1188.2700872130417)" opacity="0.67"></path><path d="M530 160H580C608 160 630 182 630 210H580C552 210 530 188 530 160Z " transform="matrix(-0.33984108204949665,0.09106014349008164,-0.09106014349008164,-0.33984108204949665,793.9539541343731,195.0557169549095)" opacity="0.54"></path><path d="M597 606H647C675 606 697 628 697 656H647C619 656 597 634 597 606Z " transform="matrix(-0.38521080091584253,-0.07487739456520956,0.07487739456520956,-0.38521080091584253,848.9837522219028,922.5136896615871)" opacity="0.60"></path><path d="M611 56H661C689 56 711 78 711 106H661C633 106 611 84 611 56Z " transform="matrix(-0.38185297914424354,-0.13148252493628573,0.13148252493628573,-0.38185297914424354,902.7547346945059,198.84004029356862)" opacity="0.62"></path><path d="M295 149H345C373 149 395 171 395 199H345C317 199 295 177 295 149Z " transform="matrix(0.016116040611628503,0.2304701181665143,-0.2304701181665143,0.016116040611628503,379.54176654996166,91.68361816612921)" opacity="0.35"></path><path d="M517 29H567C595 29 617 51 617 79H567C539 79 517 57 517 29Z " transform="matrix(-0.2678574808873889,0.18067215215850138,-0.18067215215850138,-0.2678574808873889,728.6314878797086,-33.9768063059513)" opacity="0.49"></path><path d="M150 584H200C228 584 250 606 250 634H200C172 634 150 612 150 584Z " transform="matrix(-0.03468556130320304,0.24680059270071245,-0.24680059270071245,-0.03468556130320304,357.2386732153745,580.7633882935081)" opacity="0.38"></path><path d="M131 336H181C209 336 231 358 231 386H181C153 386 131 364 131 336Z " transform="matrix(-0.0768893560907822,0.2514937517030945,-0.2514937517030945,-0.0768893560907822,285.70621781724867,343.2366884905123)" opacity="0.40"></path><path d="M408 183H458C486 183 508 205 508 233H458C430 233 408 211 408 183Z " transform="matrix(-0.13188009283980237,0.2480303808561478,-0.2480303808561478,-0.13188009283980237,569.9914017387082,121.8331448785632)" opacity="0.43"></path><path d="M327 32H377C405 32 427 54 427 82H377C349 82 327 60 327 32Z " transform="matrix(0.06171291280070794,0.20185384242847898,-0.20185384242847898,0.06171291280070794,365.2399008925564,-22.616534625176925)" opacity="0.32"></path><path d="M473 617H523C551 617 573 639 573 667H523C495 667 473 645 473 617Z " transform="matrix(-0.25895433462228573,0.18814133691442167,-0.18814133691442167,-0.25895433462228573,779.2198553065141,709.850763621265)" opacity="0.49"></path><path d="M20 614H70C98 614 120 636 120 664H70C42 664 20 642 20 614Z " transform="matrix(-0.2721563775481392,0.17674041811689004,-0.17674041811689004,-0.2721563775481392,201.98807360506245,800.5360959850786)" opacity="0.50"></path><path d="M0 32H50C78 32 100 54 100 82H50C22 82 0 60 0 32Z " transform="matrix(-0.28940240418485935,0.16041837215186028,-0.16041837215186028,-0.28940240418485935,73.613967421899,65.47501843094396)" opacity="0.51"></path><path d="M-6 162H44C72 162 94 184 94 212H44C16 212 -6 190 -6 162Z " transform="matrix(-0.3340889447907515,0.10214124075868132,-0.10214124075868132,-0.3340889447907515,77.8003255926665,244.98041808248854)" opacity="0.54"></path><path d="M264 697H314C342 697 364 719 364 747H314C286 747 264 725 264 697Z " transform="matrix(0.008161997211033096,0.23372901942959376,-0.23372901942959376,0.008161997211033096,480.18948490390244,642.7161259127416)" opacity="0.36"></path><path d="M394 719H444C472 719 494 741 494 769H444C416 769 394 747 394 719Z " transform="matrix(-0.10640979579488666,0.2506857691702063,-0.2506857691702063,-0.10640979579488666,677.7561615955632,711.8644065598241)" opacity="0.42"></path><path d="M338 400H388C416 400 438 422 438 450H388C360 450 338 428 338 400Z " transform="matrix(-0.03925802707925144,0.24786542793477734,-0.24786542793477734,-0.03925802707925144,508.57492137903,345.5128754699883)" opacity="0.38"></path><path d="M99 221H149C177 221 199 243 199 271H149C121 271 99 249 99 221Z " transform="matrix(-0.13170585316226968,0.24770268368329865,-0.24770268368329865,-0.13170585316226968,229.55903230726966,241.49194000910686)" opacity="0.43"></path><path d="M704 43H754C782 43 804 65 804 93H754C726 93 704 71 704 43Z " transform="matrix(-0.22044067093794104,-0.4145886038716878,0.4145886038716878,-0.22044067093794104,892.0202408239327,395.5897729430326)" opacity="0.72"></path><path d="M314 283H364C392 283 414 305 414 333H364C336 333 314 311 314 283Z " transform="matrix(-0.008413047894075447,0.24091817037604585,-0.24091817037604585,-0.008413047894075447,441.26514590926564,222.89700473449454)" opacity="0.37"></path><path d="M10 505H60C88 505 110 527 110 555H60C32 555 10 533 10 505Z " transform="matrix(-0.30522660202138613,0.14232950199520036,-0.14232950199520036,-0.30522660202138613,153.74823217873936,683.2303289516226)" opacity="0.52"></path><path d="M701 581H751C779 581 801 603 801 631H751C723 631 701 609 701 581Z " transform="matrix(-0.30450144061579437,-0.3265378170738165,0.3265378170738165,-0.30450144061579437,781.7986647557287,1035.7577736356075)" opacity="0.69"></path><path d="M536 506H586C614 506 636 528 636 556H586C558 556 536 534 536 506Z " transform="matrix(-0.35881308654507027,0.05042789068518571,-0.05042789068518571,-0.35881308654507027,823.0416786692449,691.9790050139135)" opacity="0.56"></path><path d="M140 712H190C218 712 240 734 240 762H190C162 762 140 740 140 712Z " transform="matrix(-0.05314233923268219,0.25001504924219503,-0.25001504924219503,-0.05314233923268219,384.3581357457074,728.6630446584697)" opacity="0.39"></path><path d="M228 405H278C306 405 328 427 328 455H278C250 455 228 433 228 405Z " transform="matrix(0.008185240316824117,0.23439461489410707,-0.23439461489410707,0.008185240316824117,376.51418759638887,361.3186437232039)" opacity="0.36"></path></g><g fill="none" stroke-width="3" stroke="hsl(290, 59%, 70%)"><path d="M576 268H626C654 268 676 290 676 318H626C598 318 576 296 576 268Z " transform="matrix(-0.38125738532633774,-0.033355699101589434,0.033355699101589434,-0.38125738532633774,854.8939033775216,425.58908153821193)" opacity="0.59"></path><path d="M123 462H173C201 462 223 484 223 512H173C145 512 123 490 123 462Z " transform="matrix(-0.0768893560907822,0.2514937517030945,-0.2514937517030945,-0.0768893560907822,308.7793156831124,480.9366973715756)" opacity="0.40"></path><path d="M553 389H603C631 389 653 411 653 439H603C575 439 553 417 553 389Z " transform="matrix(-0.37243462545417955,0.013005703706230705,-0.013005703706230705,-0.37243462545417955,832.9624404832497,560.3454956031733)" opacity="0.57"></path><path d="M677 458H727C755 458 777 480 777 508H727C699 508 677 486 677 458Z " transform="matrix(-0.33714515207677775,-0.27301476102087724,0.27301476102087724,-0.33714515207677775,840.2383959867337,844.3228397152614)" opacity="0.67"></path><path d="M446 308H496C524 308 546 330 546 358H496C468 358 446 336 446 308Z " transform="matrix(-0.19663224209485786,0.22619951914695746,-0.22619951914695746,-0.19663224209485786,668.8540319549863,286.28357512069675)" opacity="0.46"></path><path d="M684 184H734C762 184 784 206 784 234H734C706 234 684 212 684 184Z " transform="matrix(-0.3221197388653048,-0.3003815160346207,0.3003815160346207,-0.3221197388653048,907.656151475898,496.8030581922603)" opacity="0.68"></path><path d="M180 132H230C258 132 280 154 280 182H230C202 182 180 160 180 132Z " transform="matrix(0.008202865994692518,0.23489934826982964,-0.23489934826982964,0.008202865994692518,264.992538499584,101.68529993677245)" opacity="0.36"></path><path d="M264 533H314C342 533 364 555 364 583H314C286 583 264 561 264 533Z " transform="matrix(0.008161997211033096,0.23372901942959376,-0.23372901942959376,0.008161997211033096,441.85792571744895,480.05469345535107)" opacity="0.36"></path><path d="M211 249H261C289 249 311 271 311 299H261C233 299 211 277 211 249Z " transform="matrix(0.004128328153175567,0.23651176149461406,-0.23651176149461406,0.004128328153175567,324.72672900154544,211.13926833593564)" opacity="0.36"></path><path d="M690 327H740C768 327 790 349 790 377H740C712 377 690 355 690 327Z " transform="matrix(-0.3221197388653048,-0.3003815160346207,0.3003815160346207,-0.3221197388653048,872.6343131161391,687.6684699462066)" opacity="0.68"></path><path d="M362 585H412C440 585 462 607 462 635H412C384 635 362 613 362 585Z " transform="matrix(-0.05787477936834647,0.25068321056351134,-0.25068321056351134,-0.05787477936834647,588.7611675435007,542.0221326625247)" opacity="0.39"></path><path d="M6 280H56C84 280 106 302 106 330H56C28 330 6 308 6 280Z " transform="matrix(-0.30522660202138613,0.14232950199520036,-0.14232950199520036,-0.30522660202138613,116.50318782173372,390.1236615047915)" opacity="0.52"></path><path d="M11 390H61C89 390 111 412 111 440H61C33 440 11 418 11 390Z " transform="matrix(-0.30522660202138613,0.14232950199520036,-0.14232950199520036,-0.30522660202138613,138.68556605131272,532.986940217168)" opacity="0.52"></path><path d="M13 722H63C91 722 113 744 113 772H63C35 772 13 750 13 722Z " transform="matrix(-0.30522660202138613,0.14232950199520036,-0.14232950199520036,-0.30522660202138613,188.54941391776197,966.0375130842777)" opacity="0.52"></path><path d="M75 112H125C153 112 175 134 175 162H125C97 162 75 140 75 112Z " transform="matrix(-0.1419186459674733,0.24581030535704385,-0.24581030535704385,-0.1419186459674733,176.41584257984917,125.71656632791337)" opacity="0.43"></path><path d="M542 722H592C620 722 642 744 642 772H592C564 772 542 750 542 722Z " transform="matrix(-0.35881308654507027,0.05042789068518571,-0.05042789068518571,-0.35881308654507027,842.0869815765152,985.1800643635376)" opacity="0.56"></path></g></svg>