<svg xmlns="http://www.w3.org/2000/svg" version="1.1" xmlns:xlink="http://www.w3.org/1999/xlink" xmlns:svgjs="http://svgjs.dev/svgjs" viewBox="0 0 1422 800"><defs><filter id="llleaves-blur-2" x="-100%" y="-100%" width="400%" height="400%"><feGaussianBlur in="SourceGraphic" stdDeviation="2"></feGaussianBlur></filter><filter id="llleaves-blur-3" x="-100%" y="-100%" width="400%" height="400%"><feGaussianBlur in="SourceGraphic" stdDeviation="4"></feGaussianBlur></filter><filter id="llleaves-blur-4" x="-100%" y="-100%" width="400%" height="400%"><feGaussianBlur in="SourceGraphic" stdDeviation="12"></feGaussianBlur></filter></defs><g fill="#d980ff17"><path d="M1117 557H1167C1195 557 1217 579 1217 607H1167C1139 607 1117 585 1117 557Z " transform="matrix(-0.3425847142885583,0.0854159626181679,-0.0854159626181679,-0.3425847142885583,1616.508451818521,681.703875340539)" filter="url(#llleaves-blur-2)" opacity="0.54"></path><path d="M873 134H923C951 134 973 156 973 184H923C895 184 873 162 873 134Z " transform="matrix(-0.22674897577461245,-0.4090659807562843,0.4090659807562843,-0.22674897577461245,1067.247813699718,572.6209873862139)" opacity="0.72"></path><path d="M801 230H851C879 230 901 252 901 280H851C823 280 801 258 801 230Z " transform="matrix(-0.008913567906309166,-0.5106579633456212,0.5106579633456212,-0.008913567906309166,728.3676656351357,691.8428866232324)" opacity="0.78"></path><path d="M565 182H615C643 182 665 204 665 232H615C587 232 565 210 565 182Z " transform="matrix(0.4509832015348588,-0.37841983807504925,0.37841983807504925,0.4509832015348588,259.31242457452663,346.37467769843954)" opacity="0.91"></path><path d="M125 73H175C203 73 225 95 225 123H175C147 123 125 101 125 73Z " transform="matrix(-0.1268938366223421,-0.47357424544192533,0.47357424544192533,-0.1268938366223421,150.7961453556012,193.31108894132643)" opacity="0.75"></path><path d="M674 707H724C752 707 774 729 774 757H724C696 757 674 735 674 707Z " transform="matrix(0.27889879816003343,-0.4830668885830751,0.4830668885830751,0.27889879816003343,168.4723076893248,877.5865070810019)" opacity="0.86"></path><path d="M156 717H206C234 717 256 739 256 767H206C178 767 156 745 156 717Z " transform="matrix(0.16679704002692097,-0.5133485041404168,0.5133485041404168,0.16679704002692097,-209.26478031773496,723.9863881529504)" opacity="0.83"></path><path d="M871 485H921C949 485 971 507 971 535H921C893 535 871 513 871 485Z " transform="matrix(-0.2271775231991252,-0.4098391007755039,0.4098391007755039,-0.2271775231991252,921.2125574708873,1003.322348645793)" opacity="0.72"></path><path d="M875 607H925C953 607 975 629 975 657H925C897 657 875 635 875 607Z " transform="matrix(-0.2271775231991252,-0.4098391007755039,0.4098391007755039,-0.2271775231991252,876.1208972690723,1154.6773628791884)" opacity="0.72"></path><path d="M163 592H213C241 592 263 614 263 642H213C185 642 163 620 163 592Z " transform="matrix(0.2326717138655734,-0.4989661005915418,0.4989661005915418,0.2326717138655734,-144.42115911834844,579.7213319709396)" opacity="0.85"></path><path d="M235 29H285C313 29 335 51 335 79H285C257 79 235 57 235 29Z " transform="matrix(-0.008910466497299735,-0.5104802837424696,0.5104802837424696,-0.008910466497299735,259.97354762963704,199.96804605745803)" opacity="0.78"></path><path d="M10 453H60C88 453 110 475 110 503H60C32 503 10 481 10 453Z " transform="matrix(-0.1266683004131099,-0.4727325328501242,0.4727325328501242,-0.1266683004131099,-158.36605267757278,566.9113995684739)" opacity="0.75"></path><path d="M153 237H203C231 237 253 259 253 287H203C175 287 153 265 153 237Z " transform="matrix(0.16679704002692097,-0.5133485041404168,0.5133485041404168,0.16679704002692097,34.642892789745844,322.5089218534513)" opacity="0.83"></path><path d="M289 692H339C367 692 389 714 389 742H339C311 742 289 720 289 692Z " transform="matrix(0.4271034346887156,-0.3982803961884385,0.3982803961884385,0.4271034346887156,-91.35510842658499,545.7838916360715)" opacity="0.90"></path><path d="M1316 53H1366C1394 53 1416 75 1416 103H1366C1338 103 1316 81 1316 53Z " transform="matrix(-0.09661043922034035,0.2516787987481738,-0.2516787987481738,-0.09661043922034035,1517.6008062773424,-258.2576248308188)" filter="url(#llleaves-blur-3)" opacity="0.41"></path><path d="M631 445H681C709 445 731 467 731 495H681C653 495 631 473 631 445Z " transform="matrix(0.3776183382124307,-0.4344002062668787,0.4344002062668787,0.3776183382124307,219.6738147319017,588.345921507902)" opacity="0.88"></path><path d="M447 304H497C525 304 547 326 547 354H497C469 354 447 332 447 304Z " transform="matrix(0.5028730132456426,-0.3265695532158326,0.3265695532158326,0.5028730132456426,139.6307294089067,325.8598465904524)" opacity="0.92"></path><path d="M1073 696H1123C1151 696 1173 718 1173 746H1123C1095 746 1073 724 1073 696Z " transform="matrix(-0.37943803867641,-0.02653289237473957,0.02653289237473957,-0.37943803867641,1529.978702031421,1024.371264022524)" filter="url(#llleaves-blur-2)" opacity="0.58"></path><path d="M287 533H337C365 533 387 555 387 583H337C309 583 287 561 287 533Z " transform="matrix(0.4271034346887156,-0.3982803961884385,0.3982803961884385,0.4271034346887156,-29.174318563245834,453.89677695920045)" opacity="0.90"></path><path d="M140 460H190C218 460 240 482 240 510H190C162 510 140 488 140 460Z " transform="matrix(0.16679704002692097,-0.5133485041404168,0.5133485041404168,0.16679704002692097,-90.66546211321713,501.63965137362254)" opacity="0.83"></path><path d="M360 421H410C438 421 460 443 460 471H410C382 471 360 449 360 421Z " transform="matrix(0.4743883871648156,-0.35747729046977916,0.35747729046977916,0.4743883871648156,56.06588971290404,380.98846841710167)" opacity="0.91"></path><path d="M952 711H1002C1030 711 1052 733 1052 761H1002C974 761 952 739 952 711Z " transform="matrix(-0.3262234446384444,-0.2937329088972278,0.2937329088972278,-0.3262234446384444,1112.6884705793616,1270.4208299689174)" opacity="0.67"></path><path d="M1318 697H1368C1396 697 1418 719 1418 747H1368C1340 747 1318 725 1318 697Z " transform="matrix(-0.12180805720950683,0.24974352763196245,-0.24974352763196245,-0.12180805720950683,1714.9482492128823,468.29627150473925)" filter="url(#llleaves-blur-3)" opacity="0.42"></path><path d="M313 275H363C391 275 413 297 413 325H363C335 325 313 303 313 275Z " transform="matrix(0.4516575011952184,-0.37898564267136,0.37898564267136,0.4516575011952184,85.35263426472773,302.07453793113814)" opacity="0.91"></path><path d="M429 577H479C507 577 529 599 529 627H479C451 627 429 605 429 577Z " transform="matrix(0.5028730132456426,-0.3265695532158326,0.3265695532158326,0.5028730132456426,41.52895561940596,455.6972620165069)" opacity="0.92"></path><path d="M1193 718H1243C1271 718 1293 740 1293 768H1243C1215 768 1193 746 1193 718Z " transform="matrix(-0.2811859948925431,0.16895359095301396,-0.16895359095301396,-0.2811859948925431,1718.0467097295207,741.9118806505631)" filter="url(#llleaves-blur-2)" opacity="0.50"></path><path d="M22 582H72C100 582 122 604 122 632H72C44 632 22 610 22 582Z " transform="matrix(-0.1266683004131099,-0.4727325328501242,0.4727325328501242,-0.1266683004131099,-205.82852981028145,717.9244007159666)" opacity="0.75"></path><path d="M936 31H986C1014 31 1036 53 1036 81H986C958 81 936 59 936 31Z " transform="matrix(-0.3441390418700777,-0.2593273687996919,0.2593273687996919,-0.3441390418700777,1310.7987626311137,330.9685719812206)" opacity="0.66"></path><path d="M1305 201H1355C1383 201 1405 223 1405 251H1355C1327 251 1305 229 1305 201Z " transform="matrix(-0.15176854434085432,0.24288044193096694,-0.24288044193096694,-0.15176854434085432,1615.5373574582559,-68.80330779542714)" filter="url(#llleaves-blur-3)" opacity="0.44"></path><path d="M19 710H69C97 710 119 732 119 760H69C41 760 19 738 19 710Z " transform="matrix(-0.1266683004131099,-0.4727325328501242,0.4727325328501242,-0.1266683004131099,-269.7182989163366,860.7197455702943)" opacity="0.75"></path><path d="M834 352H884C912 352 934 374 934 402H884C856 402 834 380 834 352Z " transform="matrix(-0.08632945095276791,-0.4895986456860114,0.4895986456860114,-0.08632945095276791,775.7365452186206,842.3514057956276)" opacity="0.76"></path><path d="M692 301H742C770 301 792 323 792 351H742C714 351 692 329 692 301Z " transform="matrix(0.21385977929634675,-0.5038220670098446,0.5038220670098446,0.21385977929634675,419.0700499169014,630.1176856706957)" opacity="0.84"></path><path d="M541 704H591C619 704 641 726 641 754H591C563 754 541 732 541 704Z " transform="matrix(0.47391302237831673,-0.3571190774096367,0.3571190774096367,0.47391302237831673,50.57759634278966,594.5747814353024)" opacity="0.91"></path><path d="M1317 358H1367C1395 358 1417 380 1417 408H1367C1339 408 1317 386 1317 358Z " transform="matrix(-0.12180805720950683,0.24974352763196245,-0.24974352763196245,-0.12180805720950683,1629.1633852884372,88.25308363834847)" filter="url(#llleaves-blur-3)" opacity="0.42"></path></g><g fill="none" stroke-width="3" stroke="#d980ff17"><path d="M1197 305H1247C1275 305 1297 327 1297 355H1247C1219 355 1197 333 1197 305Z " transform="matrix(-0.24942573718640834,0.19487274334458293,-0.19487274334458293,-0.24942573718640834,1622.3418995751636,169.30418232081985)" filter="url(#llleaves-blur-2)" opacity="0.48"></path><path d="M568 322H618C646 322 668 344 668 372H618C590 372 568 350 568 322Z " transform="matrix(0.4509832015348588,-0.37841983807504925,0.37841983807504925,0.4509832015348588,207.98069763941515,424.37228899778444)" opacity="0.91"></path><path d="M997 552H1047C1075 552 1097 574 1097 602H1047C1019 602 997 580 997 552Z " transform="matrix(-0.37946521469936884,-0.15331389853071345,0.15331389853071345,-0.37946521469936884,1355.8379603380174,956.4710806431926)" opacity="0.63"></path><path d="M1163 169H1213C1241 169 1263 191 1263 219H1213C1185 219 1163 197 1163 169Z " transform="matrix(-0.3131929725227282,0.132942529449725,-0.132942529449725,-0.3131929725227282,1618.693926383316,93.50014844689285)" filter="url(#llleaves-blur-2)" opacity="0.52"></path><path d="M1322 524H1372C1400 524 1422 546 1422 574H1372C1344 574 1322 552 1322 524Z " transform="matrix(-0.12180805720950683,0.24974352763196245,-0.24974352763196245,-0.12180805720950683,1676.2298511613908,273.22450349696675)" filter="url(#llleaves-blur-3)" opacity="0.42"></path><path d="M589 575H639C667 575 689 597 689 625H639C611 625 589 603 589 575Z " transform="matrix(0.4192045972453691,-0.40482117390737377,0.40482117390737377,0.4192045972453691,128.23555801578482,607.1579717795904)" opacity="0.90"></path><path d="M783 36H833C861 36 883 58 883 86H833C805 86 783 64 783 36Z " transform="matrix(-0.06965970555250295,-0.4956545597584805,0.4956545597584805,-0.06965970555250295,860.7916065799676,478.1294903175169)" opacity="0.77"></path><path d="M33 327H83C111 327 133 349 133 377H83C55 377 33 355 33 327Z " transform="matrix(-0.1266683004131099,-0.4727325328501242,0.4727325328501242,-0.1266683004131099,-72.88838262895558,435.824041971975)" opacity="0.75"></path><path d="M420 168H470C498 168 520 190 520 218H470C442 218 420 196 420 168Z " transform="matrix(0.5023915875384599,-0.3262569117060276,0.3262569117060276,0.5023915875384599,170.90836989766052,249.3791721069102)" opacity="0.92"></path><path d="M702 153H752C780 153 802 175 802 203H752C724 203 702 181 702 153Z " transform="matrix(0.21385977929634675,-0.5038220670098446,0.5038220670098446,0.21385977929634675,501.4971180413949,518.8071536766533)" opacity="0.84"></path><path d="M1075 38H1125C1153 38 1175 60 1175 88H1125C1097 88 1075 66 1075 38Z " transform="matrix(-0.37570372355344295,4.6010436247746597e-17,-4.6010436247746597e-17,-0.37570372355344295,1547.6666889976234,86.66933458386686)" filter="url(#llleaves-blur-2)" opacity="0.58"></path><path d="M1202 41H1252C1280 41 1302 63 1302 91H1252C1224 91 1202 69 1202 41Z " transform="matrix(-0.23078914880546542,0.20780348296449716,-0.20780348296449716,-0.23078914880546542,1554.6630441800994,-178.93787685038973)" filter="url(#llleaves-blur-2)" opacity="0.48"></path><path d="M934 261H984C1012 261 1034 283 1034 311H984C956 311 934 289 934 261Z " transform="matrix(-0.3262234446384444,-0.2937329088972278,0.2937329088972278,-0.3262234446384444,1220.9962575796221,668.3330875214672)" opacity="0.67"></path><path d="M809 715H859C887 715 909 737 909 765H859C831 765 809 743 809 715Z " transform="matrix(-0.008913567906309166,-0.5106579633456212,0.5106579633456212,-0.008913567906309166,488.7698619557599,1185.2512307645575)" opacity="0.78"></path><path d="M736 579H786C814 579 836 601 836 629H786C758 629 736 607 736 579Z " transform="matrix(0.1387099714995609,-0.5176726611527915,0.5176726611527915,0.1387099714995609,364.2996750650591,927.1098888803593)" opacity="0.82"></path><path d="M503 44H553C581 44 603 66 603 94H553C525 94 503 72 503 44Z " transform="matrix(0.3423286035744955,-0.4542854006660808,0.4542854006660808,0.3423286035744955,332.3465895773444,296.5991529217025)" opacity="0.87"></path><path d="M218 369H268C296 369 318 391 318 419H268C240 419 218 397 218 369Z " transform="matrix(0.3426438764634494,-0.45470378192076444,0.45470378192076444,0.3426438764634494,-2.9818489689856165,380.8589262281658)" opacity="0.88"></path><path d="M1216 450H1266C1294 450 1316 472 1316 500H1266C1238 500 1216 478 1216 450Z " transform="matrix(-0.24942573718640834,0.19487274334458293,-0.19487274334458293,-0.24942573718640834,1674.3375363666698,346.76833208930196)" filter="url(#llleaves-blur-2)" opacity="0.48"></path><path d="M969 397H1019C1047 397 1069 419 1069 447H1019C991 447 969 425 969 397Z " transform="matrix(-0.35963625232602225,-0.22472567191406081,0.22472567191406081,-0.35963625232602225,1290.635107572483,802.7619581620095)" opacity="0.65"></path><path d="M748 444H798C826 444 848 466 848 494H798C770 494 748 472 748 444Z " transform="matrix(0.1387099714995609,-0.5176726611527915,0.5176726611527915,0.1387099714995609,444.5209646626912,817.0478069666335)" opacity="0.82"></path><path d="M11 41H61C89 41 111 63 111 91H61C33 91 11 69 11 41Z " transform="matrix(-0.33771417063476344,-0.2734755431637257,0.2734755431637257,-0.33771417063476344,63.551178559914675,104.97114339488166)" opacity="0.67"></path><path d="M496 452H546C574 452 596 474 596 502H546C518 502 496 480 496 452Z " transform="matrix(0.48886287360711955,-0.34230546925056604,0.34230546925056604,0.48886287360711955,115.8011621779927,430.711195500213)" opacity="0.92"></path><path d="M368 41H418C446 41 468 63 468 91H418C390 91 368 69 368 41Z " transform="matrix(0.2971644867761412,-0.4755625889926217,0.4755625889926217,0.2971644867761412,262.3981136540599,245.17230607169057)" opacity="0.86"></path><path d="M1067 282H1117C1145 282 1167 304 1167 332H1117C1089 332 1067 310 1067 282Z " transform="matrix(-0.37943803867641,-0.02653289237473957,0.02653289237473957,-0.37943803867641,1532.6866912425048,453.12471865624195)" filter="url(#llleaves-blur-2)" opacity="0.58"></path><path d="M265 152H315C343 152 365 174 365 202H315C287 202 265 180 265 152Z " transform="matrix(0.3334757480113178,-0.45898999047837896,0.45898999047837896,0.3334757480113178,128.71391106176182,262.5566396026861)" opacity="0.87"></path><path d="M1017 153H1067C1095 153 1117 175 1117 203H1067C1039 203 1017 181 1017 153Z " transform="matrix(-0.38454619692554703,-0.08877948488841561,0.08877948488841561,-0.38454619692554703,1461.5080438094205,341.17693342868677)" filter="url(#llleaves-blur-2)" opacity="0.61"></path><path d="M413 712H463C491 712 513 734 513 762H463C435 762 413 740 413 712Z " transform="matrix(0.5023915875384599,-0.3262569117060276,0.3262569117060276,0.5023915875384599,-10.058648957649325,517.7943501040459)" opacity="0.92"></path><path d="M1092 420H1142C1170 420 1192 442 1192 470H1142C1114 470 1092 448 1092 420Z " transform="matrix(-0.3644650503801051,0.03830682040126729,-0.03830682040126729,-0.3644650503801051,1575.265622612644,563.4405585208995)" filter="url(#llleaves-blur-2)" opacity="0.56"></path><path d="M17 187H67C95 187 117 209 117 237H67C39 237 17 215 17 187Z " transform="matrix(-0.1266683004131099,-0.4727325328501242,0.4727325328501242,-0.1266683004131099,-24.73252083654795,270.5267593885376)" opacity="0.75"></path><path d="M1227 599H1277C1305 599 1327 621 1327 649H1277C1249 649 1227 627 1227 599Z " transform="matrix(-0.2161860251735456,0.21618602517354563,-0.21618602517354563,-0.2161860251735456,1687.9696338549102,482.8305255616747)" filter="url(#llleaves-blur-2)" opacity="0.47"></path><path d="M637 39H687C715 39 737 61 737 89H687C659 89 637 67 637 39Z " transform="matrix(0.22340174340666774,-0.501768531045689,0.501768531045689,0.22340174340666774,501.40981629269515,394.41726925036164)" opacity="0.84"></path></g></svg>