<svg xmlns="http://www.w3.org/2000/svg" version="1.1" xmlns:xlink="http://www.w3.org/1999/xlink" xmlns:svgjs="http://svgjs.dev/svgjs" viewBox="0 0 1422 800"><g stroke-width="1" stroke="hsl(282, 65%, 68%)" fill="none" stroke-linecap="butt"><line x1="170" y1="0" x2="0" y2="170" opacity="0.05"></line><line x1="170" y1="0" x2="340" y2="170" opacity="0.05"></line><line x1="510" y1="0" x2="340" y2="170" opacity="0.05"></line><line x1="680" y1="0" x2="510" y2="170" opacity="0.05"></line><line x1="850" y1="0" x2="680" y2="170" opacity="0.05"></line><line x1="850" y1="0" x2="1020" y2="170" opacity="0.05"></line><line x1="1020" y1="0" x2="1190" y2="170" opacity="0.05"></line><line x1="1190" y1="0" x2="1360" y2="170" opacity="0.05"></line><line x1="1360" y1="0" x2="1530" y2="170" opacity="0.05"></line><line x1="170" y1="170" x2="0" y2="340" opacity="0.25"></line><line x1="340" y1="170" x2="170" y2="340" opacity="0.25"></line><line x1="340" y1="170" x2="510" y2="340" opacity="0.25"></line><line x1="680" y1="170" x2="510" y2="340" opacity="0.25"></line><line x1="680" y1="170" x2="850" y2="340" opacity="0.25"></line><line x1="850" y1="170" x2="1020" y2="340" opacity="0.25"></line><line x1="1020" y1="170" x2="1190" y2="340" opacity="0.25"></line><line x1="1360" y1="170" x2="1190" y2="340" opacity="0.25"></line><line x1="1360" y1="170" x2="1530" y2="340" opacity="0.25"></line><line x1="170" y1="340" x2="0" y2="510" opacity="0.45"></line><line x1="340" y1="340" x2="170" y2="510" opacity="0.45"></line><line x1="340" y1="340" x2="510" y2="510" opacity="0.45"></line><line x1="510" y1="340" x2="680" y2="510" opacity="0.45"></line><line x1="680" y1="340" x2="850" y2="510" opacity="0.45"></line><line x1="850" y1="340" x2="1020" y2="510" opacity="0.45"></line><line x1="1020" y1="340" x2="1190" y2="510" opacity="0.45"></line><line x1="1190" y1="340" x2="1360" y2="510" opacity="0.45"></line><line x1="1530" y1="340" x2="1360" y2="510" opacity="0.45"></line><line x1="0" y1="510" x2="170" y2="680" opacity="0.66"></line><line x1="170" y1="510" x2="340" y2="680" opacity="0.66"></line><line x1="510" y1="510" x2="340" y2="680" opacity="0.66"></line><line x1="680" y1="510" x2="510" y2="680" opacity="0.66"></line><line x1="850" y1="510" x2="680" y2="680" opacity="0.66"></line><line x1="1020" y1="510" x2="850" y2="680" opacity="0.66"></line><line x1="1190" y1="510" x2="1020" y2="680" opacity="0.66"></line><line x1="1190" y1="510" x2="1360" y2="680" opacity="0.66"></line><line x1="1360" y1="510" x2="1530" y2="680" opacity="0.66"></line><line x1="170" y1="680" x2="0" y2="850" opacity="0.86"></line><line x1="170" y1="680" x2="340" y2="850" opacity="0.86"></line><line x1="510" y1="680" x2="340" y2="850" opacity="0.86"></line><line x1="510" y1="680" x2="680" y2="850" opacity="0.86"></line><line x1="850" y1="680" x2="680" y2="850" opacity="0.86"></line><line x1="850" y1="680" x2="1020" y2="850" opacity="0.86"></line><line x1="1020" y1="680" x2="1190" y2="850" opacity="0.86"></line><line x1="1190" y1="680" x2="1360" y2="850" opacity="0.86"></line><line x1="1530" y1="680" x2="1360" y2="850" opacity="0.86"></line></g></svg>